#Comment line ignore any data following # character 
#Hierarchical Translation and Rotation (.htr) file 
[Header]	
#Header keywords are followed by a single value 
FileType HTR		#Single word string
DataType HTRS		#Translation followed by rotation and scale data
FileVersion 1		#integer
NumSegments 84		#integer
NumFrames 2		#integer
DataFrameRate 30		#integer, data frame rate in this file
EulerRotationOrder ZYX
CalibrationUnits mm
RotationUnits Degrees
GlobalAxisofGravity Y
BoneLengthAxis Y
ScaleFactor 1.00
[SegmentNames&Hierarchy]
#CHILD	PARENT
MASTER GLOBAL
root MASTER
chest root
L_mid_tent01 root
R_mid_tent01 root
spine01 root
Bip01_Neck chest
L_humerus chest
R_humerus chest
weapon_bone chest
Bip01_Head Bip01_Neck
eye_left_bone Bip01_Head
eye_right_bone Bip01_Head
L_forearm L_humerus
L_front_hand L_forearm
L_weapon_bone L_forearm
L_front_hand01_01 L_front_hand
L_front_hand02_01 L_front_hand
L_front_hand03_01 L_front_hand
L_front_hand01_02 L_front_hand01_01
L_front_hand02_02 L_front_hand02_01
L_front_hand03_02 L_front_hand03_01
R_forearm R_humerus
R_front_hand R_forearm
R_weapon_bone R_forearm
R_front_hand01_01 R_front_hand
R_front_hand02_01 R_front_hand
R_front_hand03_01 R_front_hand
R_front_hand01_02 R_front_hand01_01
R_front_hand02_02 R_front_hand02_01
R_front_hand03_02 R_front_hand03_01
null_rope01_connect L_mid_tent01
Rope1_Seg01 null_rope01_connect
Rope1_Seg02 Rope1_Seg01
Rope1_Seg03 Rope1_Seg02
Rope1_Seg04 Rope1_Seg03
Rope1_Seg05 Rope1_Seg04
Rope1_Seg06 Rope1_Seg05
Rope1_Seg07 Rope1_Seg06
Rope1_Seg09 Rope1_Seg07
L_mid_hand01 Rope1_Seg09
L_mid_hand02 Rope1_Seg09
L_mid_hand03 Rope1_Seg09
null_rope02_connect R_mid_tent01
Rope2_Seg01 null_rope02_connect
Rope2_Seg02 Rope2_Seg01
Rope2_Seg03 Rope2_Seg02
Rope2_Seg04 Rope2_Seg03
Rope2_Seg05 Rope2_Seg04
Rope2_Seg06 Rope2_Seg05
Rope2_Seg07 Rope2_Seg06
Rope2_Seg09 Rope2_Seg07
R_mid_hand01 Rope2_Seg09
R_mid_hand02 Rope2_Seg09
R_mid_hand03 Rope2_Seg09
spine02 spine01
spine03 spine02
pelvis spine03
null_rope03_connect pelvis
null_rope04_connect pelvis
Rope3_Seg01 null_rope03_connect
Rope3_Seg02 Rope3_Seg01
Rope3_Seg03 Rope3_Seg02
Rope3_Seg04 Rope3_Seg03
Rope3_Seg05 Rope3_Seg04
Rope3_Seg06 Rope3_Seg05
Rope3_Seg07 Rope3_Seg06
Rope3_Seg08 Rope3_Seg07
Rope3_Seg09 Rope3_Seg08
R_rear_hand01 Rope3_Seg09
R_rear_hand02 Rope3_Seg09
R_rear_hand03 Rope3_Seg09
Rope4_Seg01 null_rope04_connect
Rope4_Seg02 Rope4_Seg01
Rope4_Seg03 Rope4_Seg02
Rope4_Seg04 Rope4_Seg03
Rope4_Seg05 Rope4_Seg04
Rope4_Seg06 Rope4_Seg05
Rope4_Seg07 Rope4_Seg06
Rope4_Seg08 Rope4_Seg07
Rope4_Seg09 Rope4_Seg08
L_rear_hand01 Rope4_Seg09
L_rear_hand02 Rope4_Seg09
L_rear_hand03 Rope4_Seg09
[BasePosition]
#SegmentName Tx, Ty, Tz, Rx, Ry, Rz, BoneLength
MASTER 0.000000 0.000000 0.000000 -90.000000 0.000000 0.000000 10.000000 
root 0.000000 0.000000 0.000000 0.000000 0.000000 0.000000 10.000000 
chest 0.000000 0.000000 0.000000 0.000000 0.000000 0.000000 10.000000 
L_mid_tent01 0.000000 0.000000 0.000000 0.000000 0.000000 0.000000 10.000000 
R_mid_tent01 0.000000 0.000000 0.000000 0.000000 0.000000 0.000000 10.000000 
spine01 0.000000 0.000000 0.000000 0.000000 0.000000 0.000000 10.000000 
Bip01_Neck 0.000000 0.000000 0.000000 0.000000 0.000000 0.000000 10.000000 
L_humerus 0.000000 0.000000 0.000000 0.000000 0.000000 0.000000 10.000000 
R_humerus 0.000000 0.000000 0.000000 0.000000 0.000000 0.000000 10.000000 
weapon_bone 0.000000 0.000000 0.000000 0.000000 0.000000 0.000000 10.000000 
Bip01_Head 0.000000 0.000000 0.000000 0.000000 0.000000 0.000000 10.000000 
eye_left_bone 0.000000 0.000000 0.000000 0.000000 0.000000 0.000000 10.000000 
eye_right_bone 0.000000 0.000000 0.000000 0.000000 0.000000 0.000000 10.000000 
L_forearm 0.000000 0.000000 0.000000 0.000000 0.000000 0.000000 10.000000 
L_front_hand 0.000000 0.000000 0.000000 0.000000 0.000000 0.000000 10.000000 
L_weapon_bone 0.000000 0.000000 0.000000 0.000000 0.000000 0.000000 10.000000 
L_front_hand01_01 0.000000 0.000000 0.000000 0.000000 0.000000 0.000000 10.000000 
L_front_hand02_01 0.000000 0.000000 0.000000 0.000000 0.000000 0.000000 10.000000 
L_front_hand03_01 0.000000 0.000000 0.000000 0.000000 0.000000 0.000000 10.000000 
L_front_hand01_02 0.000000 0.000000 0.000000 0.000000 0.000000 0.000000 10.000000 
L_front_hand02_02 0.000000 0.000000 0.000000 0.000000 0.000000 0.000000 10.000000 
L_front_hand03_02 0.000000 0.000000 0.000000 0.000000 0.000000 0.000000 10.000000 
R_forearm 0.000000 0.000000 0.000000 0.000000 0.000000 0.000000 10.000000 
R_front_hand 0.000000 0.000000 0.000000 0.000000 0.000000 0.000000 10.000000 
R_weapon_bone 0.000000 0.000000 0.000000 0.000000 0.000000 0.000000 10.000000 
R_front_hand01_01 0.000000 0.000000 0.000000 0.000000 0.000000 0.000000 10.000000 
R_front_hand02_01 0.000000 0.000000 0.000000 0.000000 0.000000 0.000000 10.000000 
R_front_hand03_01 0.000000 0.000000 0.000000 0.000000 0.000000 0.000000 10.000000 
R_front_hand01_02 0.000000 0.000000 0.000000 0.000000 0.000000 0.000000 10.000000 
R_front_hand02_02 0.000000 0.000000 0.000000 0.000000 0.000000 0.000000 10.000000 
R_front_hand03_02 0.000000 0.000000 0.000000 0.000000 0.000000 0.000000 10.000000 
null_rope01_connect 0.000000 0.000000 0.000000 0.000000 0.000000 0.000000 10.000000 
Rope1_Seg01 0.000000 0.000000 0.000000 0.000000 0.000000 0.000000 10.000000 
Rope1_Seg02 0.000000 0.000000 0.000000 0.000000 0.000000 0.000000 10.000000 
Rope1_Seg03 0.000000 0.000000 0.000000 0.000000 0.000000 0.000000 10.000000 
Rope1_Seg04 0.000000 0.000000 0.000000 0.000000 0.000000 0.000000 10.000000 
Rope1_Seg05 0.000000 0.000000 0.000000 0.000000 0.000000 0.000000 10.000000 
Rope1_Seg06 0.000000 0.000000 0.000000 0.000000 0.000000 0.000000 10.000000 
Rope1_Seg07 0.000000 0.000000 0.000000 0.000000 0.000000 0.000000 10.000000 
Rope1_Seg09 0.000000 0.000000 0.000000 0.000000 0.000000 0.000000 10.000000 
L_mid_hand01 0.000000 0.000000 0.000000 0.000000 0.000000 0.000000 10.000000 
L_mid_hand02 0.000000 0.000000 0.000000 0.000000 0.000000 0.000000 10.000000 
L_mid_hand03 0.000000 0.000000 0.000000 0.000000 0.000000 0.000000 10.000000 
null_rope02_connect 0.000000 0.000000 0.000000 0.000000 0.000000 0.000000 10.000000 
Rope2_Seg01 0.000000 0.000000 0.000000 0.000000 0.000000 0.000000 10.000000 
Rope2_Seg02 0.000000 0.000000 0.000000 0.000000 0.000000 0.000000 10.000000 
Rope2_Seg03 0.000000 0.000000 0.000000 0.000000 0.000000 0.000000 10.000000 
Rope2_Seg04 0.000000 0.000000 0.000000 0.000000 0.000000 0.000000 10.000000 
Rope2_Seg05 0.000000 0.000000 0.000000 0.000000 0.000000 0.000000 10.000000 
Rope2_Seg06 0.000000 0.000000 0.000000 0.000000 0.000000 0.000000 10.000000 
Rope2_Seg07 0.000000 0.000000 0.000000 0.000000 0.000000 0.000000 10.000000 
Rope2_Seg09 0.000000 0.000000 0.000000 0.000000 0.000000 0.000000 10.000000 
R_mid_hand01 0.000000 0.000000 0.000000 0.000000 0.000000 0.000000 10.000000 
R_mid_hand02 0.000000 0.000000 0.000000 0.000000 0.000000 0.000000 10.000000 
R_mid_hand03 0.000000 0.000000 0.000000 0.000000 0.000000 0.000000 10.000000 
spine02 0.000000 0.000000 0.000000 0.000000 0.000000 0.000000 10.000000 
spine03 0.000000 0.000000 0.000000 0.000000 0.000000 0.000000 10.000000 
pelvis 0.000000 0.000000 0.000000 0.000000 0.000000 0.000000 10.000000 
null_rope03_connect 0.000000 0.000000 0.000000 0.000000 0.000000 0.000000 10.000000 
null_rope04_connect 0.000000 0.000000 0.000000 0.000000 0.000000 0.000000 10.000000 
Rope3_Seg01 0.000000 0.000000 0.000000 0.000000 0.000000 0.000000 10.000000 
Rope3_Seg02 0.000000 0.000000 0.000000 0.000000 0.000000 0.000000 10.000000 
Rope3_Seg03 0.000000 0.000000 0.000000 0.000000 0.000000 0.000000 10.000000 
Rope3_Seg04 0.000000 0.000000 0.000000 0.000000 0.000000 0.000000 10.000000 
Rope3_Seg05 0.000000 0.000000 0.000000 0.000000 0.000000 0.000000 10.000000 
Rope3_Seg06 0.000000 0.000000 0.000000 0.000000 0.000000 0.000000 10.000000 
Rope3_Seg07 0.000000 0.000000 0.000000 0.000000 0.000000 0.000000 10.000000 
Rope3_Seg08 0.000000 0.000000 0.000000 0.000000 0.000000 0.000000 10.000000 
Rope3_Seg09 0.000000 0.000000 0.000000 0.000000 0.000000 0.000000 10.000000 
R_rear_hand01 0.000000 0.000000 0.000000 0.000000 0.000000 0.000000 10.000000 
R_rear_hand02 0.000000 0.000000 0.000000 0.000000 0.000000 0.000000 10.000000 
R_rear_hand03 0.000000 0.000000 0.000000 0.000000 0.000000 0.000000 10.000000 
Rope4_Seg01 0.000000 0.000000 0.000000 0.000000 0.000000 0.000000 10.000000 
Rope4_Seg02 0.000000 0.000000 0.000000 0.000000 0.000000 0.000000 10.000000 
Rope4_Seg03 0.000000 0.000000 0.000000 0.000000 0.000000 0.000000 10.000000 
Rope4_Seg04 0.000000 0.000000 0.000000 0.000000 0.000000 0.000000 10.000000 
Rope4_Seg05 0.000000 0.000000 0.000000 0.000000 0.000000 0.000000 10.000000 
Rope4_Seg06 0.000000 0.000000 0.000000 0.000000 0.000000 0.000000 10.000000 
Rope4_Seg07 0.000000 0.000000 0.000000 0.000000 0.000000 0.000000 10.000000 
Rope4_Seg08 0.000000 0.000000 0.000000 0.000000 0.000000 0.000000 10.000000 
Rope4_Seg09 0.000000 0.000000 0.000000 0.000000 0.000000 0.000000 10.000000 
L_rear_hand01 0.000000 0.000000 0.000000 0.000000 0.000000 0.000000 10.000000 
L_rear_hand02 0.000000 0.000000 0.000000 0.000000 0.000000 0.000000 10.000000 
L_rear_hand03 0.000000 0.000000 0.000000 0.000000 0.000000 0.000000 10.000000 
#Beginning of Data. Separated by tabs
#Fr	Tx	Ty	Tz	Rx	Ry	Rz	SF
[MASTER]
11 0.000000 0.000000 0.000000 0.001660 0.001660 0.001660 0.000000
12 0.000000 0.000000 0.000000 0.001660 0.001660 0.001660 0.000000
[root]
11 -2.271610 -15.191620 1472.033936 -91.740158 13.400836 -90.225014 1472.114136
12 -2.426379 -15.779739 1468.234375 -91.740158 13.400836 -90.225014 1468.321289
[chest]
11 -84.512650 -34.090519 0.000000 -2.117274 0.462005 -179.268204 91.129311
12 -84.512650 -34.090519 0.000000 -2.117274 0.462005 -179.268204 91.129311
[L_mid_tent01]
11 27.299511 22.177458 -249.918259 -11.082462 24.921654 44.910412 252.381134
12 27.299511 22.177458 -249.918259 -11.009395 26.190676 45.026299 252.381134
[R_mid_tent01]
11 23.228794 24.509907 226.238495 -174.638031 -20.139570 48.417278 228.744751
12 23.228794 24.509907 226.238495 -174.722900 -21.560579 48.605110 228.744751
[spine01]
11 -0.361383 -0.195265 0.000000 -0.000001 -0.000007 22.052340 0.410763
12 -0.361383 -0.195265 0.000000 -0.000001 -0.000007 22.052340 0.410763
[Bip01_Neck]
11 165.484543 71.581718 0.000119 175.896118 1.177290 24.871183 180.302734
12 165.484543 71.581718 0.000119 175.896118 1.177290 24.871183 180.302734
[L_humerus]
11 -13.983130 -135.272980 -120.471481 175.474304 58.687801 -118.474754 181.680161
12 -13.983130 -135.272980 -120.471481 175.474304 58.687801 -118.474754 181.680161
[R_humerus]
11 -13.983309 -135.273102 125.287651 174.588181 -51.786880 -99.934280 184.909012
12 -13.983309 -135.273102 125.287651 174.588181 -51.786877 -99.934273 184.909012
[weapon_bone]
11 235.964890 -300.705902 0.000000 0.000000 -89.951546 -128.212341 382.234833
12 235.964890 -300.705902 0.000000 0.000000 -89.951546 -128.212341 382.234833
[Bip01_Head]
11 163.817291 272.852325 22.822264 1.693472 4.424703 -42.711670 319.069519
12 163.817291 272.852325 22.822264 1.693472 4.424703 -42.711670 319.069519
[eye_left_bone]
11 -24.626970 125.451866 -64.772606 0.000000 -90.000000 -99.840431 143.318359
12 -24.626970 125.451866 -64.772606 0.000000 -90.000000 -99.840431 143.318359
[eye_right_bone]
11 -24.626970 125.451866 64.327362 0.000000 -89.965736 80.156380 143.117676
12 -24.626970 125.451866 64.327362 0.000000 -89.965736 80.156380 143.117676
[L_forearm]
11 322.776093 0.000000 -0.000119 0.000442 -0.002305 -111.718391 322.776093
12 322.776093 0.000000 -0.000119 0.000442 -0.002305 -111.718391 322.776093
[L_front_hand]
11 241.149185 -0.042021 -3.300071 -179.659958 -2.242151 -0.019832 241.171753
12 241.149185 -0.042021 -3.300071 -179.659958 -2.242151 -0.019832 241.171753
[L_weapon_bone]
11 156.183838 0.000000 0.000000 0.000014 0.000007 0.000001 156.183838
12 156.183838 0.000000 0.000000 0.000014 0.000007 0.000001 156.183838
[L_front_hand01_01]
11 86.095154 20.947098 -0.655860 -0.366594 -0.477154 75.385574 88.609184
12 86.095154 20.947098 -0.655860 -0.366594 -0.477154 75.385574 88.609184
[L_front_hand02_01]
11 86.935165 -11.437475 24.513514 154.399796 -59.883835 -61.369587 91.046425
12 86.935165 -11.437475 24.513514 154.399796 -59.883835 -61.369587 91.046425
[L_front_hand03_01]
11 86.637497 -14.123976 -20.424902 -153.913849 58.118122 -62.702866 90.126129
12 86.637497 -14.123976 -20.424902 -153.913849 58.118130 -62.702866 90.126129
[L_front_hand01_02]
11 71.020905 -0.000179 0.000030 0.000334 -0.002323 -106.379684 71.020905
12 71.020905 -0.000179 0.000030 0.000334 -0.002323 -106.379684 71.020905
[L_front_hand02_02]
11 71.020927 -0.000119 0.000060 0.000334 -0.002323 -106.379684 71.020927
12 71.020927 -0.000119 0.000060 0.000334 -0.002323 -106.379684 71.020927
[L_front_hand03_02]
11 71.020905 -0.000060 0.000060 0.000334 -0.002323 -106.379684 71.020905
12 71.020905 -0.000060 0.000060 0.000334 -0.002323 -106.379684 71.020905
[R_forearm]
11 322.776428 -0.000060 0.000030 0.211305 0.032976 -99.623016 322.776428
12 322.776428 -0.000060 0.000030 0.211305 0.032976 -99.623016 322.776428
[R_front_hand]
11 238.847015 -0.006795 2.210259 -0.270529 1.703932 2.322530 238.857239
12 238.847015 -0.006795 2.210259 -0.270529 1.703932 2.322530 238.857239
[R_weapon_bone]
11 155.664093 0.002503 -0.000030 0.003487 0.001180 -90.988930 155.664078
12 155.664093 0.002503 -0.000030 0.003487 0.001180 -90.988930 155.664078
[R_front_hand01_01]
11 87.624611 14.231146 22.918642 -154.633499 -59.950619 61.746044 91.683487
12 87.624611 14.231146 22.918642 -154.633499 -59.950619 61.746044 91.683487
[R_front_hand02_01]
11 89.356956 14.367283 -19.491137 154.602661 58.302849 63.744389 92.579636
12 89.356956 14.367283 -19.491137 154.602661 58.302849 63.744389 92.579636
[R_front_hand03_01]
11 87.286232 -22.307278 -0.143439 0.162155 -0.423168 -75.767921 90.091743
12 87.286232 -22.307278 -0.143439 0.162155 -0.423168 -75.767906 90.091743
[R_front_hand01_02]
11 71.020905 0.000060 0.000119 0.002323 -0.000334 106.381714 71.020905
12 71.020905 0.000060 0.000119 0.002323 -0.000334 106.381714 71.020905
[R_front_hand02_02]
11 71.020844 -0.000030 -0.000119 0.002323 -0.000334 106.381714 71.020836
12 71.020844 -0.000030 -0.000119 0.002323 -0.000334 106.381714 71.020836
[R_front_hand03_02]
11 71.020905 0.000000 0.000030 0.002323 -0.000334 106.381714 71.020905
12 71.020905 0.000000 0.000030 0.002323 -0.000334 106.381714 71.020905
[null_rope01_connect]
11 328.732483 0.000000 -0.000238 -173.946777 -61.211014 -156.733871 328.732483
12 328.732483 0.000000 -0.000238 -172.935532 -60.081650 -157.963181 328.732483
[Rope1_Seg01]
11 0.000000 0.000000 0.000000 -101.561554 59.221230 -100.480652 0.000000
12 0.000000 0.000000 0.000000 -104.712761 58.904739 -102.781525 0.000000
[Rope1_Seg02]
11 139.999863 -0.000179 0.000000 23.060505 -12.450839 -12.239842 139.999863
12 139.999863 -0.000179 0.000000 24.236643 -12.542924 -12.634712 139.999863
[Rope1_Seg03]
11 139.999924 0.000060 -0.000060 12.631723 -11.918791 -4.499281 139.999924
12 139.999924 0.000060 -0.000060 13.273993 -12.173334 -4.664972 139.999924
[Rope1_Seg04]
11 139.999924 -0.000060 -0.000119 7.896844 -12.196210 -1.027777 139.999924
12 139.999924 -0.000060 -0.000119 8.404949 -12.554398 -1.238791 139.999924
[Rope1_Seg05]
11 139.999832 0.000119 -0.000060 0.832308 -1.122554 -0.476372 139.999832
12 139.999832 0.000119 -0.000060 0.941746 -1.461704 -0.282403 139.999832
[Rope1_Seg06]
11 139.999954 0.000119 -0.000060 -3.659164 7.382681 -1.955147 139.999954
12 139.999954 0.000119 -0.000060 -3.515017 6.806772 -1.387167 139.999954
[Rope1_Seg07]
11 139.999985 0.000060 0.000000 -22.886402 23.582451 -3.987725 139.999985
12 139.999985 0.000060 0.000000 -20.104599 21.893650 -2.540095 139.999985
[Rope1_Seg09]
11 121.602913 0.000119 -0.000089 -89.793175 -1.359789 0.847147 121.602913
12 121.602913 0.000119 -0.000089 -89.793175 -1.359789 0.847147 121.602913
[L_mid_hand01]
11 103.859421 1.038730 8.195221 106.855484 -31.239275 -9.461397 104.187431
12 103.859421 1.038730 8.195221 106.855484 -31.239275 -9.461397 104.187431
[L_mid_hand02]
11 105.572853 -4.139662 -10.864139 -142.331345 25.752670 -28.774628 106.211075
12 105.572853 -4.139662 -10.864139 -142.331345 25.752670 -28.774628 106.211075
[L_mid_hand03]
11 104.641464 17.579376 -3.913581 -16.122810 9.734291 34.223598 106.179977
12 104.641464 17.579376 -3.913581 -16.122810 9.734291 34.223598 106.179977
[null_rope02_connect]
11 328.732849 0.000179 -0.000119 -165.496384 70.785889 -12.617602 328.732849
12 328.732849 0.000179 -0.000119 -164.585999 69.423531 -11.457855 328.732849
[Rope2_Seg01]
11 0.000000 0.000000 0.000000 157.097839 49.375816 -71.173447 0.000000
12 0.000000 0.000000 0.000000 162.008011 49.196587 -67.457062 0.000000
[Rope2_Seg02]
11 139.999741 -0.000060 -0.000119 -12.171021 -6.551695 16.800106 139.999756
12 139.999741 -0.000060 -0.000119 -14.132879 -5.641700 17.940386 139.999756
[Rope2_Seg03]
11 140.000107 0.000030 0.000000 -10.489227 -14.946266 25.608091 140.000107
12 140.000107 0.000030 0.000000 -11.662067 -14.343064 26.883087 140.000107
[Rope2_Seg04]
11 139.999802 0.000000 -0.000060 0.147084 -0.432888 -0.528091 139.999802
12 139.999802 0.000000 -0.000060 -0.192118 -2.636663 1.970145 139.999802
[Rope2_Seg05]
11 139.999985 -0.000060 0.000119 4.558861 18.578136 -27.657820 139.999985
12 139.999985 -0.000060 0.000119 3.873195 16.207113 -25.989697 139.999985
[Rope2_Seg06]
11 139.999893 -0.000030 -0.000119 8.691916 6.053536 -12.344154 139.999893
12 139.999893 -0.000030 -0.000119 7.483650 5.843712 -12.486259 139.999893
[Rope2_Seg07]
11 139.999893 0.000060 -0.000060 6.828233 2.036152 -6.724133 139.999893
12 139.999893 0.000060 -0.000060 5.925704 2.077905 -6.844265 139.999893
[Rope2_Seg09]
11 121.338966 0.000089 -0.000060 33.793236 -1.359788 -0.847141 121.338966
12 121.338966 0.000089 -0.000060 33.793236 -1.359788 -0.847141 121.338966
[R_mid_hand01]
11 104.680779 11.144459 -10.335981 -41.523792 25.424656 28.595957 105.778534
12 104.680779 11.144459 -10.335981 -41.523792 25.424656 28.595957 105.778534
[R_mid_hand02]
11 104.070427 2.443552 8.231699 72.847389 -32.746803 10.013901 104.424065
12 104.070427 2.443552 8.231699 72.847389 -32.746803 10.013901 104.424065
[R_mid_hand03]
11 106.028137 -11.221827 -5.996406 -167.901306 10.259192 -37.009720 106.788818
12 106.028137 -11.221827 -5.996406 -167.901306 10.259192 -37.009720 106.788818
[spine02]
11 129.756927 0.001550 0.000119 0.360061 -4.044797 -12.915058 129.756927
12 129.756927 0.001550 0.000119 0.360061 -4.044797 -12.915058 129.756927
[spine03]
11 78.613846 0.087372 -4.898873 1.896495 3.831288 16.473045 78.766380
12 78.613846 0.087372 -4.898873 1.896495 3.831288 16.473045 78.766380
[pelvis]
11 169.435242 0.051022 0.000000 -0.060465 -0.180225 14.087930 169.435257
12 169.435242 0.051022 0.000000 -0.060465 -0.180225 14.087930 169.435257
[null_rope03_connect]
11 -1.257226 -2.466202 137.391083 -159.503860 -89.311867 -163.586563 137.418976
12 -1.257226 -2.466202 137.391083 -159.503860 -89.311867 -163.586563 137.418976
[null_rope04_connect]
11 -1.259640 -2.480268 -137.844437 -159.503860 -89.311867 -163.586563 137.872513
12 -1.259640 -2.480268 -137.844437 -159.503860 -89.311867 -163.586563 137.872513
[Rope3_Seg01]
11 0.000000 0.000000 0.000000 -133.885132 30.420462 -80.085167 0.000000
12 0.000000 0.000000 0.000000 -135.250580 31.644688 -82.440811 0.000000
[Rope3_Seg02]
11 139.999924 -0.000119 0.000060 1.019892 5.429411 -0.559005 139.999924
12 139.999924 -0.000119 0.000060 1.129174 4.783121 -1.688777 139.999924
[Rope3_Seg03]
11 139.999924 -0.000119 0.000119 1.891164 8.147675 -1.599306 139.999924
12 139.999924 -0.000119 0.000119 1.783784 7.038854 -3.263896 139.999924
[Rope3_Seg04]
11 139.999924 0.000119 0.000000 4.343424 16.645369 -7.612785 139.999924
12 139.999924 0.000119 0.000000 2.857140 13.997790 -11.421274 139.999924
[Rope3_Seg05]
11 139.999924 -0.000238 0.000060 -5.155607 -2.802207 15.545883 139.999924
12 139.999924 -0.000238 0.000060 -3.314245 -0.208082 16.831089 139.999924
[Rope3_Seg06]
11 139.999893 -0.000119 -0.000060 -7.908202 -6.543980 11.909206 139.999893
12 139.999893 -0.000119 -0.000060 -6.952224 -4.114470 13.958505 139.999893
[Rope3_Seg07]
11 139.999771 0.000060 -0.000119 -2.971732 -2.460679 4.723312 139.999771
12 139.999771 0.000060 -0.000119 -2.818736 -1.502903 5.478104 139.999771
[Rope3_Seg08]
11 139.999985 -0.000060 0.000000 -1.606890 -1.539873 2.620451 139.999985
12 139.999985 -0.000060 0.000000 -1.598376 -0.999764 3.053029 139.999985
[Rope3_Seg09]
11 90.185997 -0.000179 -0.000060 89.793228 -1.359877 -0.847183 90.185997
12 90.185997 -0.000179 -0.000060 89.793228 -1.359877 -0.847183 90.185997
[R_rear_hand01]
11 103.366196 -6.073594 -10.757982 -161.551193 16.666374 -30.088671 104.101845
12 103.366196 -6.073594 -10.757982 -161.551193 16.666374 -30.088671 104.101845
[R_rear_hand02]
11 100.509819 12.039542 -7.992327 -34.280552 19.289745 28.875523 101.543350
12 100.509819 12.039542 -7.992327 -34.280552 19.289745 28.875523 101.543350
[R_rear_hand03]
11 101.539970 5.215704 5.435467 83.366440 -30.933914 7.284830 101.819031
12 101.539970 5.215704 5.435467 83.366440 -30.933914 7.284830 101.819031
[Rope4_Seg01]
11 0.000010 0.000038 -0.000114 54.695469 24.691925 -84.460922 0.000121
12 0.000010 0.000038 -0.000114 53.527187 23.904169 -86.874878 0.000121
[Rope4_Seg02]
11 139.999985 0.000060 0.000119 2.107717 -0.378534 -6.255890 139.999985
12 139.999985 0.000060 0.000119 1.887333 1.165962 -5.442262 139.999985
[Rope4_Seg03]
11 139.999924 0.000000 -0.000238 1.979251 -0.092522 -6.874643 139.999924
12 139.999924 0.000000 -0.000238 1.959166 1.797181 -5.931450 139.999924
[Rope4_Seg04]
11 139.999985 0.000000 0.000119 2.322641 2.362630 -9.212812 139.999985
12 139.999985 0.000000 0.000119 2.683177 5.138721 -7.574172 139.999985
[Rope4_Seg05]
11 139.999802 -0.000060 -0.000119 -0.053063 -6.343540 -1.783599 139.999802
12 139.999802 -0.000060 -0.000119 -0.095831 -7.118084 -2.257071 139.999802
[Rope4_Seg06]
11 139.999924 0.000000 0.000060 -0.681142 -9.771370 3.629443 139.999924
12 139.999924 0.000000 0.000060 -0.815839 -11.908203 1.782481 139.999924
[Rope4_Seg07]
11 139.999802 0.000000 0.000000 0.210552 -5.066129 0.873547 139.999802
12 139.999802 0.000000 0.000000 0.201127 -5.673323 -0.028110 139.999802
[Rope4_Seg08]
11 139.999924 0.000000 0.000119 -1.295992 -3.060471 0.422208 139.999924
12 139.999924 0.000000 0.000119 -1.307080 -3.382854 -0.083443 139.999924
[Rope4_Seg09]
11 90.185791 0.000060 0.000060 -135.617828 2.228885 0.850567 90.185791
12 90.185791 0.000060 0.000060 -135.617828 2.228885 0.850567 90.185791
[L_rear_hand01]
11 101.696655 -8.392275 -7.654577 -34.454281 -18.946800 151.655121 102.329041
12 101.696655 -8.392275 -7.654577 -34.454281 -18.946800 151.655121 102.329041
[L_rear_hand02]
11 102.726799 -1.568258 5.773216 83.407906 30.330435 172.796509 102.900848
12 102.726799 -1.568258 5.773216 83.407906 30.330435 172.796509 102.900848
[L_rear_hand03]
11 104.552910 9.721220 -10.420293 -161.379868 -16.473232 -150.512238 105.519653
12 104.552910 9.721220 -10.420293 -161.379868 -16.473232 -150.512238 105.519653
